<svg width="81" height="81" viewBox="0 0 81 81" fill="none" xmlns="http://www.w3.org/2000/svg">
    <path fill-rule="evenodd" clip-rule="evenodd" d="M0 10C0 4.47715 4.47715 0 10 0H71C76.5229 0 81 4.47715 81 10V71C81 76.5229 76.5229 81 71 81H10C4.47715 81 0 76.5229 0 71V10ZM30 61.4996C30 67.8509 24.8513 72.9996 18.5 72.9996C12.1487 72.9996 7 67.8509 7 61.4996C7 55.1484 12.1487 49.9996 18.5 49.9996C24.8513 49.9996 30 55.1484 30 61.4996ZM35.4608 70.805C34.9963 72.1092 35.9655 73.4795 37.35 73.4759L50.8997 73.4414C51.7437 73.4393 52.4955 72.9075 52.7787 72.1125L74.5215 11.067C74.986 9.76302 74.0172 8.39287 72.633 8.39595L59.0816 8.42605C58.2373 8.42792 57.4851 8.95974 57.2019 9.75507L35.4608 70.805Z" fill="#14181E"/>
</svg>
