<svg width="81" height="81" viewBox="0 0 81 81" fill="none" xmlns="http://www.w3.org/2000/svg">
    <path fill-rule="evenodd" clip-rule="evenodd" d="M0 10C0 4.47656 4.47656 0 10 0H71C76.5234 0 81 4.47656 81 10V71C81 74.4883 79.2148 77.5566 76.5078 79.3477C74.9297 80.3926 73.0352 81 71 81H10C6.99609 81 4.30469 79.6777 2.47266 77.582C0.933594 75.8223 0 73.5195 0 71V10ZM27.9648 65.7988C27.5117 66.6855 26.9219 67.4902 26.2266 68.1895C25.2227 69.1953 23.9922 69.9785 22.6211 70.457C21.6445 70.7969 20.5938 70.9805 19.5 70.9805C14.2539 70.9805 10 66.7266 10 61.4805C10 56.2344 14.2539 51.9805 19.5 51.9805C24.7461 51.9805 29 56.2344 29 61.4805C29 63.0352 28.625 64.5039 27.9648 65.7988ZM37.3438 66.0859C36.4102 68.7344 38.4258 71.4961 41.2344 71.4141L45.4062 71.293C47.0586 71.2441 48.5117 70.1875 49.0625 68.6309L67.7852 15.8008C68.7266 13.1504 66.7109 10.3848 63.8984 10.4648L59.6406 10.5898C57.9844 10.6367 56.5312 11.6973 55.9844 13.2578L37.3438 66.0859Z" fill="#14181E"/>
</svg>